<?xml version="1.0" encoding="UTF-8" standalone="no"?>
<!-- Created with Inkscape (http://www.inkscape.org/) -->

<svg
   version="1.1"
   id="svg824"
   xml:space="preserve"
   width="74"
   height="20.317217"
   viewBox="0 0 73.999997 20.317217"
   sodipodi:docname="NimIconGame Kopie 3.svg"
   inkscape:version="1.1.2 (b8e25be8, 2022-02-05)"
   xmlns:inkscape="http://www.inkscape.org/namespaces/inkscape"
   xmlns:sodipodi="http://sodipodi.sourceforge.net/DTD/sodipodi-0.dtd"
   xmlns="http://www.w3.org/2000/svg"
   xmlns:svg="http://www.w3.org/2000/svg"><defs
     id="defs828"><clipPath
       clipPathUnits="userSpaceOnUse"
       id="clipPath840"><path
         d="M 2,1 H 59 V 19 H 2 Z"
         id="path838" /></clipPath><clipPath
       clipPathUnits="userSpaceOnUse"
       id="clipPath844"><path
         d="M 0,0 H 60 V 20 H 0 Z"
         id="path842" /></clipPath></defs><sodipodi:namedview
     id="namedview826"
     pagecolor="#ffffff"
     bordercolor="#666666"
     borderopacity="1.0"
     inkscape:pageshadow="2"
     inkscape:pageopacity="0.0"
     inkscape:pagecheckerboard="0"
     showgrid="false"
     height="26.66667px"
     fit-margin-top="0"
     fit-margin-left="0"
     fit-margin-right="0"
     fit-margin-bottom="0"
     inkscape:zoom="2.833063"
     inkscape:cx="3.8827234"
     inkscape:cy="41.121571"
     inkscape:window-width="1614"
     inkscape:window-height="847"
     inkscape:window-x="0"
     inkscape:window-y="44"
     inkscape:window-maximized="0"
     inkscape:current-layer="g830" /><g
     id="g830"
     inkscape:groupmode="layer"
     inkscape:label="345"
     transform="matrix(1.3333333,0,0,-1.3333333,-25.193292,-1.9296726)"><g
       id="g832" /><g
       id="g1821"
       transform="translate(16.71801,-17.685168)"><path
         d="m 3.9750976,1 h 7.1305474 c 1.190496,0 1.79194,0.5952453 1.79194,1.7733368 v 7.1677539 c 0,1.1780903 -0.601444,1.7795343 -1.79194,1.7795343 H 3.9750976 c -1.1904907,0 -1.7981383,-0.595246 -1.7981383,-1.7795343 V 2.7733368 C 2.1769593,1.589045 2.7846069,1 3.9750976,1 Z m 0.012386,0.8556664 c -0.6138481,0 -0.9548742,0.3286254 -0.9548742,0.9610731 v 7.0809438 c 0,0.6386527 0.3410261,0.9610747 0.9548742,0.9610747 h 7.0995444 c 0.607647,0 0.954874,-0.322422 0.954874,-0.9610747 V 2.8167395 c 0,-0.6324477 -0.347227,-0.9610731 -0.954874,-0.9610731 z"
         style="fill:#000000;fill-opacity:1;fill-rule:nonzero;stroke:none;stroke-width:0.999997"
         id="path1307"
         sodipodi:nodetypes="ssssssssssssssssss" /><path
         d="m 15.142418,1 h 7.130551 c 1.190489,0 1.791933,0.5952453 1.791933,1.7733368 v 7.1677539 c 0,1.1780903 -0.601444,1.7795343 -1.791933,1.7795343 h -7.130551 c -1.190496,0 -1.79814,-0.595246 -1.79814,-1.7795343 V 2.7733368 C 13.344278,1.589045 13.951922,1 15.142418,1 Z m 0.01239,0.8556664 c -0.613845,0 -0.954874,0.3286254 -0.954874,0.9610731 v 7.0809438 c 0,0.6386527 0.341029,0.9610747 0.954874,0.9610747 h 7.099543 c 0.607651,0 0.954874,-0.322422 0.954874,-0.9610747 V 2.8167395 c 0,-0.6324477 -0.347223,-0.9610731 -0.954874,-0.9610731 z"
         style="fill:#000000;fill-opacity:1;fill-rule:nonzero;stroke:none;stroke-width:0.999997"
         id="path1309"
         sodipodi:nodetypes="ssssssssssssssssss" /><path
         d="m 26.309736,1 h 7.130549 c 1.19049,0 1.791935,0.5952453 1.791935,1.7733368 v 7.1677539 c 0,1.1780903 -0.601445,1.7795343 -1.791935,1.7795343 h -7.130549 c -1.190491,0 -1.798141,-0.595246 -1.798141,-1.7795343 V 2.7733368 C 24.511595,1.589045 25.119245,1 26.309736,1 Z m 0.01239,0.8556664 c -0.613845,0 -0.954875,0.3286254 -0.954875,0.9610731 v 7.0809438 c 0,0.6386527 0.34103,0.9610747 0.954875,0.9610747 h 7.09955 c 0.607645,0 0.954868,-0.322422 0.954868,-0.9610747 V 2.8167395 c 0,-0.6324477 -0.347223,-0.9610731 -0.954868,-0.9610731 z"
         style="fill:#000000;fill-opacity:1;fill-rule:nonzero;stroke:none;stroke-width:0.999997"
         id="path1311"
         sodipodi:nodetypes="ssssssssssssssssss" /><path
         d="m 37.532103,1 h 7.130548 c 1.190495,0 1.791939,0.5952453 1.791939,1.7733368 v 7.1677539 c 0,1.1780883 -0.601444,1.7795343 -1.791939,1.7795343 h -7.130548 c -1.190491,0 -1.798139,-0.595246 -1.798139,-1.7795343 V 2.7733368 C 35.733964,1.589045 36.341612,1 37.532103,1 Z m 0.01239,0.8556664 c -0.613848,0 -0.954874,0.3286254 -0.954874,0.9610731 v 7.0809438 c 0,0.6386507 0.341026,0.9610747 0.954874,0.9610747 h 7.099545 c 0.607646,0 0.954874,-0.322424 0.954874,-0.9610747 V 2.8167395 c 0,-0.6324477 -0.347228,-0.9610731 -0.954874,-0.9610731 z"
         style="fill:#000000;fill-opacity:1;fill-rule:nonzero;stroke:none;stroke-width:0.999997"
         id="path1313"
         sodipodi:nodetypes="ssssssssssssssssss" /><path
         d="m 48.754475,1 h 7.130551 c 1.190489,0 1.791934,0.5952453 1.791934,1.7733368 v 7.1677539 c 0,1.1780883 -0.601445,1.7795343 -1.791934,1.7795343 h -7.130551 c -1.190495,0 -1.798139,-0.595246 -1.798139,-1.7795343 V 2.7733368 C 46.956336,1.589045 47.56398,1 48.754475,1 Z m 0.01239,0.8556664 c -0.613845,0 -0.954874,0.3286254 -0.954874,0.9610731 v 7.0809438 c 0,0.6386507 0.341029,0.9610747 0.954874,0.9610747 h 7.099543 c 0.60765,0 0.954874,-0.322424 0.954874,-0.9610747 V 2.8167395 c 0,-0.6324477 -0.347224,-0.9610731 -0.954874,-0.9610731 z"
         style="fill:#000000;fill-opacity:1;fill-rule:nonzero;stroke:none;stroke-width:0.999997"
         id="path1315"
         sodipodi:nodetypes="ssssssssssssssssss" /><circle
         style="fill:#000000;fill-opacity:1;stroke:none;stroke-width:0.467718;stroke-linecap:round;stroke-linejoin:round"
         id="circle1321"
         cx="7.537272"
         cy="-14.744044"
         r="1.4938692"
         transform="scale(1,-1)" /></g></g></svg>
