<?xml version="1.0" encoding="UTF-8" standalone="no"?>
<!DOCTYPE svg PUBLIC "-//W3C//DTD SVG 1.1//EN" "http://www.w3.org/Graphics/SVG/1.1/DTD/svg11.dtd">

<!-- Created with Vectornator (http://vectornator.io/) -->
<svg height="100%" stroke-miterlimit="10" style="fill-rule:nonzero;clip-rule:evenodd;stroke-linecap:round;stroke-linejoin:round;" version="1.1" viewBox="0 0 82.6172 87.9883" width="100%" xml:space="preserve" xmlns="http://www.w3.org/2000/svg" xmlns:vectornator="http://vectornator.io" xmlns:xlink="http://www.w3.org/1999/xlink">
<metadata>
<vectornator:setting key="IsTimeLapseWatermarkDisabled" value="false"/>
<vectornator:setting key="UndoHistoryDisabled" value="true"/>
<vectornator:setting key="VNDimensionsVisible" value="true"/>
<vectornator:setting key="VNSnapToGuides" value="true"/>
<vectornator:setting key="WDCMYKEnabledKey" value="false"/>
<vectornator:setting key="WDDisplayWhiteBackground" value="false"/>
<vectornator:setting key="WDDynamicGuides" value="false"/>
<vectornator:setting key="WDGuidesVisible" value="true"/>
<vectornator:setting key="WDIsolateActiveLayer" value="false"/>
<vectornator:setting key="WDOutlineMode" value="false"/>
<vectornator:setting key="WDRulersVisible" value="true"/>
<vectornator:setting key="WDSnapToEdges" value="false"/>
<vectornator:setting key="WDSnapToGrid" value="false"/>
<vectornator:setting key="WDSnapToPoints" value="false"/>
<vectornator:setting key="WDUnits" value="Points"/>
</metadata>
<defs/>
<g id="Untitled" vectornator:layerName="Untitled">
<path d="M82.6172 28.5157C82.6172 24.1537 81.7627 20.1416 80.0537 16.4795C78.3448 12.8174 76.0661 9.88777 73.2178 7.6905C70.3695 5.49323 67.2038 4.3946 63.7207 4.3946L50.9278 4.3946C48.3236 3.0274 45.4671 1.95317 42.3584 1.1719C39.2497 0.390633 35.9375 0 32.4219 0L27.0508 0C24.6419 0 22.4203 0.0732667 20.3858 0.2198C18.3513 0.366267 16.6341 0.618533 15.2344 0.9766C12.4349 1.6602 10.2295 2.91347 8.6182 4.7364C7.00687 6.55927 6.2012 8.7077 6.2012 11.1817C6.2012 12.0606 6.29887 12.9232 6.4942 13.7696C3.79233 15.918 2.4414 18.6849 2.4414 22.0703C2.4414 23.6328 2.70183 25.0651 3.2227 26.3672C2.34377 27.3438 1.6683 28.475 1.1963 29.7608C0.724301 31.0466 0.488301 32.3894 0.488301 33.7891C0.488301 35.6771 0.878935 37.3861 1.6602 38.916C0.5534 40.6087 0 42.627 0 44.9707C0 47.9981 1.03353 50.5535 3.1006 52.6368C5.16767 54.7201 7.6986 55.7618 10.6934 55.7618L25.4883 55.7618C25.7487 55.7618 25.9603 55.8188 26.1231 55.9327C26.2858 56.0466 26.3672 56.2338 26.3672 56.4942C26.3672 57.5033 26.0417 58.8298 25.3907 60.4737C24.7396 62.1176 23.9746 63.9405 23.0957 65.9424C22.2168 67.9444 21.4519 70.0114 20.8008 72.1436C20.1498 74.2757 19.8243 76.3347 19.8243 78.3203C19.8243 81.1198 20.7032 83.431 22.461 85.2539C24.2188 87.0768 26.4486 87.9883 29.1504 87.9883C31.1361 87.9883 32.8532 87.4431 34.3018 86.3526C35.7503 85.2621 37.1257 83.4636 38.4278 80.9571C39.5671 78.7435 40.8122 76.5218 42.1631 74.292C43.514 72.0622 44.987 69.7917 46.5821 67.4805C48.1771 65.1693 49.9105 62.793 51.7823 60.3516C53.654 57.9102 55.6804 55.3711 57.8614 52.7344L65.1856 52.7344C68.4083 52.7344 71.3379 51.6358 73.9746 49.4385C76.6113 47.2412 78.711 44.3034 80.2735 40.625C81.836 36.9467 82.6172 32.9102 82.6172 28.5157ZM59.2774 28.7598C59.2774 32.8939 58.7484 36.4828 57.6905 39.5264C56.6326 42.57 54.8015 45.8333 52.1973 49.3164C49.3002 53.1901 46.0205 57.487 42.3584 62.2071C38.6963 66.9271 35.4167 72.1843 32.5196 77.9785C31.836 79.4108 31.2175 80.3467 30.6641 80.7862C30.1107 81.2256 29.5085 81.4453 28.8575 81.4453C28.1413 81.4453 27.5553 81.1768 27.0996 80.6397C26.6439 80.1026 26.4161 79.3295 26.4161 78.3203C26.4161 76.7578 26.7416 75.0407 27.3926 73.169C28.0437 71.2972 28.8005 69.3767 29.6631 67.4073C30.5258 65.4379 31.2907 63.5173 31.958 61.6455C32.6253 59.7738 32.959 58.0567 32.959 56.4942C32.959 54.2155 32.1289 52.4333 30.4688 51.1475C28.8087 49.8617 26.8067 49.2188 24.4629 49.2188L10.6934 49.2188C9.52153 49.2188 8.54497 48.8119 7.7637 47.9981C6.98243 47.1843 6.5918 46.1752 6.5918 44.9707C6.5918 43.4082 7.32423 41.8946 8.7891 40.4297C9.0821 40.1042 9.24487 39.7705 9.2774 39.4287C9.31007 39.0869 9.2124 38.7533 8.9844 38.4278C8.3008 37.3861 7.81253 36.5316 7.5196 35.8643C7.2266 35.197 7.0801 34.5052 7.0801 33.7891C7.0801 32.0313 7.959 30.4688 9.7168 29.1016C10.2051 28.7435 10.5307 28.3122 10.6934 27.8077C10.8561 27.3031 10.791 26.7741 10.4981 26.2207C10.0098 25.2116 9.64363 24.4467 9.3995 23.9258C9.1553 23.405 9.0332 22.7865 9.0332 22.0703C9.0332 20.2148 10.4167 18.5384 13.1836 17.041C13.6393 16.8132 13.916 16.5202 14.0137 16.1621C14.1114 15.804 14.0787 15.446 13.9157 15.0879C13.3948 13.7533 13.0693 12.8907 12.9391 12.5C12.8089 12.1094 12.7438 11.67 12.7438 11.1817C12.7438 9.32623 14.0784 8.0567 16.7477 7.3731C17.9196 7.0801 19.3763 6.8685 21.1178 6.7383C22.8593 6.6081 24.8206 6.55927 27.0016 6.5918L32.3727 6.6407C37.7112 6.67323 42.3987 7.6335 46.4352 9.5215C50.4717 11.4096 53.6211 14.0056 55.8834 17.3096C58.1458 20.6137 59.277 24.4304 59.277 28.7598L59.2774 28.7598ZM76.0254 28.5157C76.0254 31.7058 75.5209 34.6436 74.5118 37.3291C73.5027 40.0147 72.168 42.155 70.5079 43.75C68.8477 45.3451 67.0736 46.1426 65.1856 46.1426C64.6973 46.1426 64.1928 46.1426 63.6719 46.1426C63.1511 46.1426 62.6303 46.1426 62.1094 46.1426C63.4115 43.571 64.3636 40.861 64.9659 38.0127C65.5681 35.1644 65.8692 32.129 65.8692 28.9063C65.8692 25.4232 65.2914 22.168 64.1358 19.1407C62.9802 16.1133 61.3445 13.3952 59.2286 10.9864C59.9773 10.9864 60.7259 10.9864 61.4746 10.9864C62.2233 10.9864 62.972 10.9864 63.7207 10.9864C65.9343 10.9864 67.9688 11.7921 69.8243 13.4034C71.6798 15.0147 73.1771 17.1468 74.3164 19.7998C75.4557 22.4528 76.0254 25.3581 76.0254 28.5157Z" fill="#000000" fill-rule="evenodd" opacity="1" stroke="none"/>
</g>
</svg>
