<?xml version="1.0" encoding="UTF-8" standalone="no"?>
<!-- Created with Inkscape (http://www.inkscape.org/) -->

<svg
   version="1.1"
   id="svg824"
   xml:space="preserve"
   width="29.999996"
   height="40"
   viewBox="0 0 29.999996 40"
   sodipodi:docname="ButtonSmallToLarge.svg"
   inkscape:version="1.1.2 (b8e25be8, 2022-02-05)"
   xmlns:inkscape="http://www.inkscape.org/namespaces/inkscape"
   xmlns:sodipodi="http://sodipodi.sourceforge.net/DTD/sodipodi-0.dtd"
   xmlns="http://www.w3.org/2000/svg"
   xmlns:svg="http://www.w3.org/2000/svg"><defs
     id="defs828" /><sodipodi:namedview
     id="namedview826"
     pagecolor="#ffffff"
     bordercolor="#666666"
     borderopacity="1.0"
     inkscape:pageshadow="2"
     inkscape:pageopacity="0.0"
     inkscape:pagecheckerboard="0"
     showgrid="false"
     inkscape:zoom="7.8666677"
     inkscape:cx="14.936439"
     inkscape:cy="16.271184"
     inkscape:window-width="1485"
     inkscape:window-height="766"
     inkscape:window-x="0"
     inkscape:window-y="44"
     inkscape:window-maximized="0"
     inkscape:current-layer="g832" /><g
     id="g830"
     inkscape:groupmode="layer"
     inkscape:label="ButtonSmallToLarge"
     transform="matrix(1.3333333,0,0,1.3333333,0,1.148504e-6)"><g
       id="g832"><path
         d="M 7.6450001,11.2285 H 14.855 c 0.786,0 1.399,-0.219 1.84,-0.652 0.442,-0.434 0.66,-1.0350005 0.66,-1.8050005 v -3.531 c 0,-0.774 -0.218,-1.375 -0.66,-1.813 -0.441,-0.437 -1.054,-0.656 -1.84,-0.656 H 7.6450001 c -0.786,0 -1.399,0.219 -1.84,0.656 -0.442,0.438 -0.66,1.039 -0.66,1.813 v 3.531 c 0,0.77 0.218,1.3710005 0.66,1.8050005 0.441,0.433 1.054,0.652 1.84,0.652 z m 0.027,-1.5860005 c -0.297,0 -0.527,-0.086 -0.692,-0.254 -0.168,-0.172 -0.253,-0.406 -0.253,-0.711 v -3.359 c 0,-0.301 0.085,-0.535 0.253,-0.707 0.165,-0.172 0.395,-0.254 0.692,-0.254 H 14.828 c 0.297,0 0.527,0.082 0.699,0.254 0.172,0.172 0.254,0.406 0.254,0.707 v 3.359 c 0,0.305 -0.082,0.539 -0.254,0.711 -0.172,0.168 -0.402,0.254 -0.699,0.254 z M 10.492,13.7165 h 1.528 v -3.3 H 10.492 Z M 2.5,21.1975 H 20 c 0.785,0 1.398,-0.219 1.84,-0.656 0.441,-0.438 0.66,-1.036 0.66,-1.801 v -3.543 c 0,-0.762 -0.219,-1.364 -0.66,-1.801 -0.442,-0.437 -1.055,-0.656 -1.84,-0.656 H 2.5 c -0.785,0 -1.398,0.219 -1.84,0.656 C 0.219,13.8335 0,14.4355 0,15.1975 v 3.543 c 0,0.765 0.219,1.363 0.66,1.801 0.442,0.437 1.055,0.656 1.84,0.656 z m 0.027,-1.582 c -0.293,0 -0.527,-0.086 -0.691,-0.258 -0.168,-0.172 -0.25,-0.406 -0.25,-0.711 v -3.355 c 0,-0.301 0.082,-0.54 0.25,-0.711 0.164,-0.172 0.398,-0.258 0.691,-0.258 h 17.446 c 0.293,0 0.527,0.086 0.699,0.258 0.168,0.171 0.254,0.41 0.254,0.711 v 3.355 c 0,0.305 -0.086,0.539 -0.254,0.711 -0.172,0.172 -0.406,0.258 -0.699,0.258 z m 7.961,3.773 h 1.535 v -3.305 h -1.535 z m 0.2,3.547 c 0.167,0.195 0.363,0.293 0.589,0.293 0.231,-0.004 0.422,-0.098 0.578,-0.293 l 2.391,-2.965 c 0.227,-0.285 0.281,-0.578 0.164,-0.879 -0.117,-0.3 -0.359,-0.449 -0.73,-0.449 H 8.855 c -0.386,0 -0.64,0.149 -0.761,0.445 -0.121,0.297 -0.059,0.59 0.179,0.883 z"
         style="fill:#000000;fill-opacity:1;fill-rule:nonzero;stroke:none"
         id="path834"
         sodipodi:nodetypes="sscsscsscsscsscsscssssscsscccccsscsscsscsscsscsscsscsscssccccccccccssccc" /></g></g></svg>
