<?xml version="1.0" encoding="UTF-8" standalone="no"?>
<!DOCTYPE svg PUBLIC "-//W3C//DTD SVG 1.1//EN" "http://www.w3.org/Graphics/SVG/1.1/DTD/svg11.dtd">

<!-- Created with Vectornator (http://vectornator.io/) -->
<svg height="100%" stroke-miterlimit="10" style="fill-rule:nonzero;clip-rule:evenodd;stroke-linecap:round;stroke-linejoin:round;" version="1.1" viewBox="0 0 82.6172 87.9883" width="100%" xml:space="preserve" xmlns="http://www.w3.org/2000/svg" xmlns:vectornator="http://vectornator.io" xmlns:xlink="http://www.w3.org/1999/xlink">
<metadata>
<vectornator:setting key="IsTimeLapseWatermarkDisabled" value="false"/>
<vectornator:setting key="UndoHistoryDisabled" value="true"/>
<vectornator:setting key="VNDimensionsVisible" value="true"/>
<vectornator:setting key="VNSnapToGuides" value="true"/>
<vectornator:setting key="WDCMYKEnabledKey" value="false"/>
<vectornator:setting key="WDDisplayWhiteBackground" value="false"/>
<vectornator:setting key="WDDynamicGuides" value="false"/>
<vectornator:setting key="WDGuidesVisible" value="true"/>
<vectornator:setting key="WDIsolateActiveLayer" value="false"/>
<vectornator:setting key="WDOutlineMode" value="false"/>
<vectornator:setting key="WDRulersVisible" value="true"/>
<vectornator:setting key="WDSnapToEdges" value="false"/>
<vectornator:setting key="WDSnapToGrid" value="false"/>
<vectornator:setting key="WDSnapToPoints" value="false"/>
<vectornator:setting key="WDUnits" value="Points"/>
</metadata>
<defs/>
<g id="Untitled" vectornator:layerName="Untitled">
<path d="M0 59.4726C0 63.8346 0.846353 67.8467 2.53906 71.5088C4.23179 75.1709 6.51043 78.1006 9.37496 80.2978C12.2396 82.4951 15.3971 83.5937 18.8477 83.5937L31.6895 83.5937C34.2936 84.9609 37.15 86.0351 40.2588 86.8164C43.3675 87.5976 46.6797 87.9883 50.1953 87.9883L55.5664 87.9883C57.9752 87.9883 60.1969 87.915 62.2315 87.7685C64.2659 87.622 65.9831 87.3698 67.3829 87.0117C70.1823 86.3281 72.3877 85.0748 73.9991 83.2519C75.6104 81.429 76.4161 79.2806 76.4161 76.8066C76.4161 75.9277 76.3021 75.0651 76.0743 74.2187C78.8086 72.0703 80.1758 69.3033 80.1758 65.9179C80.1758 64.3554 79.9154 62.9232 79.3946 61.6211C80.2734 60.6445 80.9489 59.5133 81.4209 58.2275C81.8929 56.9417 82.1289 55.5989 82.1289 54.1992C82.1289 52.3112 81.7383 50.6022 80.9571 49.0722C82.0638 47.3795 82.6172 45.3613 82.6172 43.0176C82.6172 39.9902 81.5836 37.4348 79.5166 35.3515C77.4496 33.2682 74.9187 32.2265 71.9239 32.2265L57.1289 32.2265C56.8685 32.2265 56.6488 32.1695 56.4698 32.0556C56.2907 31.9417 56.2012 31.7545 56.2012 31.4941C56.2012 30.485 56.5348 29.1585 57.2022 27.5146C57.8695 25.8707 58.6345 24.0478 59.4971 22.0459C60.3597 20.0439 61.1247 17.9768 61.792 15.8447C62.4593 13.7126 62.793 11.6536 62.793 9.6679C62.793 6.86843 61.9141 4.55723 60.1563 2.7343C58.3985 0.911433 56.1686 0 53.4668 0C51.4811 0 49.764 0.545233 48.3155 1.6357C46.8669 2.72623 45.4915 4.52473 44.1895 7.0312C43.0176 9.24473 41.7643 11.4664 40.4297 13.6963C39.0951 15.9261 37.6302 18.1966 36.0352 20.5078C34.4401 22.819 32.7067 25.1953 30.835 27.6367C28.9632 30.0781 26.9206 32.6172 24.7071 35.2539L17.4317 35.2539C14.1765 35.2539 11.2386 36.3525 8.61816 38.5498C5.99769 40.7471 3.90622 43.6849 2.34375 47.3633C0.781249 51.0416 0 55.0781 0 59.4726ZM23.3399 59.2285C23.3399 55.0944 23.8688 51.5055 24.9268 48.4619C25.9847 45.4183 27.8158 42.155 30.42 38.6719C33.3171 34.7982 36.5886 30.5013 40.2344 25.7812C43.8802 21.0611 47.1517 15.804 50.0489 10.0097C50.765 8.57743 51.3916 7.64157 51.9287 7.2021C52.4658 6.76263 53.0599 6.5429 53.711 6.5429C54.4596 6.5429 55.0618 6.81147 55.5176 7.3486C55.9733 7.88573 56.2012 8.65883 56.2012 9.6679C56.2012 11.2304 55.8756 12.9476 55.2246 14.8193C54.5736 16.691 53.8086 18.6116 52.9297 20.581C52.0508 22.5504 51.2858 24.471 50.6348 26.3427C49.9837 28.2145 49.6582 29.9316 49.6582 31.4941C49.6582 33.7728 50.4801 35.555 52.1241 36.8408C53.7679 38.1266 55.7617 38.7695 58.1055 38.7695L71.9239 38.7695C73.0957 38.7695 74.0723 39.1764 74.8536 39.9902C75.6348 40.804 76.0254 41.8131 76.0254 43.0176C76.0254 44.5801 75.293 46.0937 73.8282 47.5586C73.5026 47.8841 73.3317 48.2178 73.3155 48.5595C73.2992 48.9013 73.405 49.235 73.6329 49.5605C74.3164 50.6022 74.8047 51.4567 75.0977 52.124C75.3906 52.7913 75.5371 53.4831 75.5371 54.1992C75.5371 55.957 74.6419 57.5195 72.8516 58.8867C72.3958 59.2448 72.0866 59.6761 71.9239 60.1806C71.7611 60.6852 71.8262 61.2142 72.1192 61.7676C72.6074 62.7767 72.9736 63.5416 73.2178 64.0625C73.4619 64.5833 73.584 65.2018 73.584 65.9179C73.584 67.7734 72.2005 69.4498 69.4336 70.9472C68.9778 71.1751 68.7012 71.4681 68.6036 71.8261C68.5059 72.1842 68.5384 72.5423 68.7012 72.9004C69.222 74.235 69.5394 75.0976 69.6534 75.4883C69.7673 75.8789 69.8243 76.3183 69.8243 76.8066C69.8243 78.6621 68.4896 79.9316 65.8203 80.6152C64.681 80.9082 63.2324 81.1198 61.4746 81.25C59.7168 81.3802 57.7474 81.429 55.5664 81.3965L50.2442 81.3476C44.873 81.3151 40.1693 80.3548 36.1329 78.4668C32.0964 76.5787 28.9551 73.9827 26.709 70.6787C24.4629 67.3746 23.3399 63.5579 23.3399 59.2285ZM6.59176 59.4726C6.59176 56.2825 7.09633 53.3447 8.10546 50.6592C9.11459 47.9736 10.4411 45.8333 12.085 44.2383C13.7288 42.6432 15.5111 41.8457 17.4317 41.8457C17.9199 41.8457 18.4245 41.8457 18.9453 41.8457C19.4661 41.8457 19.987 41.8457 20.5079 41.8457C19.2057 44.4173 18.2536 47.1273 17.6514 49.9756C17.0492 52.8239 16.7481 55.8593 16.7481 59.082C16.7481 62.5651 17.3177 65.8203 18.4571 68.8476C19.5964 71.875 21.2403 74.5931 23.3887 77.0019C22.64 77.0019 21.8832 77.0019 21.1182 77.0019C20.3532 77.0019 19.5963 77.0019 18.8477 77.0019C16.6667 77.0019 14.6484 76.2044 12.793 74.6093C10.9375 73.0143 9.44009 70.8821 8.30076 68.2129C7.16143 65.5436 6.59176 62.6302 6.59176 59.4726Z" fill="#000000" fill-rule="evenodd" opacity="1" stroke="none"/>
</g>
</svg>
