<?xml version="1.0" encoding="UTF-8" standalone="no"?>
<!--Generator: Apple Native CoreSVG 175-->

<svg
   version="1.1"
   width="50"
   height="50"
   id="svg1012"
   sodipodi:docname="NimIconPaintpalette.svg"
   inkscape:version="1.1.2 (b8e25be8, 2022-02-05)"
   xmlns:inkscape="http://www.inkscape.org/namespaces/inkscape"
   xmlns:sodipodi="http://sodipodi.sourceforge.net/DTD/sodipodi-0.dtd"
   xmlns="http://www.w3.org/2000/svg"
   xmlns:svg="http://www.w3.org/2000/svg">
  <defs
     id="defs1016" />
  <sodipodi:namedview
     id="namedview1014"
     pagecolor="#ffffff"
     bordercolor="#666666"
     borderopacity="1.0"
     inkscape:pageshadow="2"
     inkscape:pageopacity="0.0"
     inkscape:pagecheckerboard="0"
     showgrid="false"
     fit-margin-top="0"
     fit-margin-left="0"
     fit-margin-right="0"
     fit-margin-bottom="0"
     inkscape:zoom="0.80800197"
     inkscape:cx="181.31144"
     inkscape:cy="4.950483"
     inkscape:window-width="1671"
     inkscape:window-height="848"
     inkscape:window-x="0"
     inkscape:window-y="44"
     inkscape:window-maximized="0"
     inkscape:current-layer="svg1012" />
  <!--glyph: "uni100765.medium", point size: 100.0, font version: "17.1d1e1", template writer version: "65.1"-->
  <path
     d="m 26.496118,41.631748 q 3.49266,0 6.116637,-0.76972 2.623977,-0.76972 4.082452,-2.153728 1.458748,-1.384042 1.458748,-3.205877 0,-1.218538 -0.42388,-2.034218 -0.423881,-0.815715 -0.978736,-1.428437 -0.554514,-0.612721 -0.980334,-1.181592 -0.425684,-0.568871 -0.425684,-1.290182 0,-0.654498 0.70124,-1.188329 0.701376,-0.533796 1.803262,-1.063681 1.102225,-0.529885 2.333384,-1.181388 1.231158,-0.651504 2.324539,-1.523793 1.09338,-0.872255 1.792817,-2.108449 Q 45,21.26616 45,19.563325 45,16.194222 42.826166,13.67625 40.652333,11.158243 36.767328,9.7632474 32.882188,8.3682517 27.725474,8.3682517 q -5.089833,0 -9.268288,1.2131965 -4.178455,1.2131968 -7.19134,3.4454068 Q 8.2529939,15.259066 6.626497,18.368907 5,21.478781 5,25.286153 q 0,3.662553 1.5416868,6.666423 1.5417209,3.003904 4.3956342,5.168928 2.85388,2.165056 6.800969,3.337633 3.94709,1.172611 8.757828,1.172611 z m 0,-2.847756 q -5.631862,0 -9.822258,-1.68899 -4.190429,-1.688956 -6.51007,-4.725996 -2.3196401,-3.037039 -2.3196401,-7.082853 0,-4.218938 2.4679981,-7.390149 2.467999,-3.171245 6.933985,-4.925587 4.465952,-1.754375 10.479341,-1.754375 4.360118,0 7.598517,1.051332 3.238536,1.051299 5.035096,2.931376 1.796899,1.880076 1.796899,4.364575 0,1.452419 -0.699437,2.42418 -0.699437,0.971729 -1.801662,1.648372 -1.102226,0.676611 -2.352775,1.2365 -1.25055,0.559923 -2.352707,1.169209 -1.102192,0.609252 -1.801629,1.455142 -0.69947,0.84589 -0.69947,2.103244 0,1.052625 0.434528,1.808295 0.434495,0.755671 0.996187,1.359582 0.561693,0.60391 0.996188,1.19918 0.434528,0.595304 0.434528,1.323453 0,1.591389 -2.408192,2.542433 -2.408193,0.951077 -6.405427,0.951077 z M 25.121976,34.88589 q 1.258102,0 2.309401,-0.629051 1.051298,-0.629016 1.669735,-1.678546 0.618403,-1.049496 0.618403,-2.311169 0,-1.261674 -0.618403,-2.302359 -0.618437,-1.040719 -1.669735,-1.669769 -1.051299,-0.629051 -2.309401,-0.629051 -1.261606,0 -2.304161,0.629051 -1.042522,0.62905 -1.669736,1.669769 -0.627214,1.040685 -0.627214,2.302359 0,1.261673 0.627214,2.311169 0.627214,1.04953 1.669736,1.678546 1.042555,0.629051 2.304161,0.629051 z m 0,-1.932262 q -1.114982,0 -1.891915,-0.785778 -0.776967,-0.785778 -0.776967,-1.900726 0,-1.238269 0.803366,-1.936005 0.8034,-0.697702 1.830306,-0.71529 1.062151,-0.01769 1.89195,0.68008 0.829833,0.697736 0.829833,1.971215 0,1.114948 -0.785778,1.900726 -0.785778,0.785778 -1.900795,0.785778 z M 13.397223,27.562827 q 1.133115,0 1.938046,-0.824321 0.804931,-0.824322 0.804931,-1.961043 0,-1.140293 -0.801359,-1.941617 -0.801325,-0.80136 -1.941618,-0.80136 -1.140259,0 -1.954035,0.803128 -0.813742,0.803127 -0.813742,1.939849 0,1.136721 0.815545,1.961043 0.815511,0.824321 1.952232,0.824321 z m 6.061968,-5.322354 q 1.430512,0 2.447723,-1.008434 1.017211,-1.008434 1.017211,-2.474155 0,-1.444529 -1.01898,-2.442349 -1.019014,-0.997854 -2.445954,-0.997854 -1.469362,0 -2.497187,0.997854 -1.027791,0.99782 -1.027791,2.442349 0,1.465721 1.027791,2.474156 1.027825,1.008433 2.497187,1.008433 z m 8.414641,-2.678475 q 1.158255,0 1.977338,-0.82092 0.819083,-0.820954 0.819083,-1.975569 0,-1.154616 -0.819083,-1.975569 -0.819083,-0.82092 -1.977338,-0.82092 -1.154615,0 -1.987918,0.822723 -0.833303,0.822688 -0.833303,1.973766 0,1.151077 0.833303,1.973766 0.833303,0.822723 1.987918,0.822723 z m 7.591612,1.066573 q 0.932095,0 1.581523,-0.658341 0.649429,-0.658342 0.649429,-1.615033 0,-0.935531 -0.65113,-1.604453 -0.65147,-0.668956 -1.579822,-0.668956 -0.956691,0 -1.629253,0.668956 -0.672528,0.668922 -0.672528,1.604453 0,0.953118 0.670759,1.61323 0.670759,0.660144 1.631022,0.660144 z"
     id="path972"
     style="stroke-width:0.340193" />
</svg>
