<?xml version="1.0" encoding="UTF-8" standalone="no"?>
<!-- Created with Inkscape (http://www.inkscape.org/) -->

<svg
   version="1.1"
   id="svg1195"
   xml:space="preserve"
   width="32"
   height="40"
   viewBox="0 0 32 40.000001"
   sodipodi:docname="clockBackward.svg"
   inkscape:version="1.1.2 (b8e25be8, 2022-02-05)"
   xmlns:inkscape="http://www.inkscape.org/namespaces/inkscape"
   xmlns:sodipodi="http://sodipodi.sourceforge.net/DTD/sodipodi-0.dtd"
   xmlns="http://www.w3.org/2000/svg"
   xmlns:svg="http://www.w3.org/2000/svg"><defs
     id="defs1199" /><sodipodi:namedview
     id="namedview1197"
     pagecolor="#ffffff"
     bordercolor="#666666"
     borderopacity="1.0"
     inkscape:pageshadow="2"
     inkscape:pageopacity="0.0"
     inkscape:pagecheckerboard="0"
     showgrid="false"
     inkscape:zoom="6.485177"
     inkscape:cx="1.3877802"
     inkscape:cy="5.3198239"
     inkscape:window-width="1360"
     inkscape:window-height="851"
     inkscape:window-x="0"
     inkscape:window-y="44"
     inkscape:window-maximized="0"
     inkscape:current-layer="g1201" /><g
     id="g1201"
     inkscape:groupmode="layer"
     inkscape:label="clockBackward"
     transform="matrix(1.3333333,0,0,1.3333333,0,1.0178423e-6)"><g
       id="g1203"
       transform="translate(0,4.7324996)"><path
         d="m 12.223,20.535 c 1.402,0 2.722,-0.265 3.965,-0.801 1.242,-0.535 2.335,-1.277 3.281,-2.226 0.945,-0.949 1.687,-2.043 2.226,-3.281 C 22.23,12.988 22.5,11.668 22.5,10.27 22.5,8.867 22.23,7.547 21.695,6.309 21.156,5.07 20.414,3.977 19.469,3.027 18.523,2.078 17.43,1.336 16.188,0.801 14.945,0.266 13.625,0 12.223,0 10.82,0 9.5,0.266 8.262,0.801 7.023,1.336 5.934,2.074 4.988,3.02 4.043,3.969 3.301,5.059 2.762,6.297 2.223,7.535 1.953,8.855 1.953,10.258 H 3.672 C 3.672,9.074 3.891,7.965 4.332,6.93 4.773,5.898 5.383,4.988 6.164,4.211 6.945,3.43 7.855,2.816 8.891,2.379 9.926,1.938 11.039,1.715 12.223,1.715 c 1.191,0 2.3,0.223 3.336,0.664 1.035,0.437 1.941,1.051 2.726,1.832 0.785,0.777 1.399,1.687 1.84,2.727 0.441,1.035 0.66,2.144 0.66,3.332 0,1.183 -0.219,2.292 -0.66,3.328 -0.441,1.039 -1.055,1.949 -1.84,2.734 -0.785,0.785 -1.691,1.395 -2.726,1.836 -1.036,0.441 -2.145,0.66 -3.336,0.66 C 10.793,18.824 9.473,18.5 8.266,17.855 7.059,17.215 6.07,16.355 5.293,15.281 5.148,15.07 4.961,14.938 4.742,14.883 4.52,14.824 4.305,14.863 4.098,14.996 c -0.211,0.121 -0.336,0.305 -0.379,0.547 -0.043,0.246 0.023,0.48 0.191,0.699 0.645,0.852 1.399,1.598 2.258,2.242 0.859,0.649 1.801,1.153 2.824,1.512 1.024,0.359 2.102,0.539 3.231,0.539 z M 0.719,8.32 C 0.48,8.32 0.301,8.371 0.176,8.473 0.051,8.57 -0.008,8.699 0,8.859 0.008,9.02 0.078,9.191 0.211,9.379 l 2.254,3.207 c 0.164,0.226 0.351,0.344 0.562,0.344 0.215,0 0.403,-0.118 0.571,-0.344 L 5.848,9.371 C 5.98,9.184 6.047,9.012 6.047,8.855 6.047,8.699 5.988,8.57 5.867,8.473 5.746,8.371 5.566,8.32 5.328,8.32 Z"
         style="fill:#000000;fill-opacity:1;fill-rule:nonzero;stroke:none"
         id="path1205" /><path
         d="m 11.379,4.363 c -0.227,0 -0.418,0.078 -0.57,0.235 -0.157,0.156 -0.235,0.343 -0.235,0.562 v 5.629 c 0,0.223 0.082,0.438 0.238,0.649 l 2.489,3.277 c 0.16,0.219 0.351,0.347 0.57,0.387 0.219,0.035 0.43,-0.02 0.641,-0.161 0.187,-0.129 0.285,-0.3 0.3,-0.515 0.016,-0.215 -0.05,-0.426 -0.199,-0.629 l -3.351,-4.52 0.914,2.817 V 5.16 C 12.176,4.941 12.098,4.754 11.945,4.598 11.789,4.441 11.602,4.363 11.379,4.363 Z"
         style="fill:#000000;fill-opacity:1;fill-rule:nonzero;stroke:none"
         id="path1207" /></g></g></svg>
