<?xml version="1.0" encoding="UTF-8" standalone="no"?>
<!DOCTYPE svg PUBLIC "-//W3C//DTD SVG 1.1//EN" "http://www.w3.org/Graphics/SVG/1.1/DTD/svg11.dtd">

<!-- Created with Vectornator (http://vectornator.io/) -->
<svg height="100%" stroke-miterlimit="10" style="fill-rule:nonzero;clip-rule:evenodd;stroke-linecap:round;stroke-linejoin:round;" version="1.1" viewBox="0 0 79.5411 82.3317" width="100%" xml:space="preserve" xmlns="http://www.w3.org/2000/svg" xmlns:vectornator="http://vectornator.io" xmlns:xlink="http://www.w3.org/1999/xlink">
<metadata>
<vectornator:setting key="IsTimeLapseWatermarkDisabled" value="false"/>
<vectornator:setting key="UndoHistoryDisabled" value="true"/>
<vectornator:setting key="VNDimensionsVisible" value="true"/>
<vectornator:setting key="VNSnapToGuides" value="true"/>
<vectornator:setting key="WDCMYKEnabledKey" value="false"/>
<vectornator:setting key="WDDisplayWhiteBackground" value="false"/>
<vectornator:setting key="WDDynamicGuides" value="false"/>
<vectornator:setting key="WDGuidesVisible" value="true"/>
<vectornator:setting key="WDIsolateActiveLayer" value="false"/>
<vectornator:setting key="WDOutlineMode" value="false"/>
<vectornator:setting key="WDRulersVisible" value="true"/>
<vectornator:setting key="WDSnapToEdges" value="false"/>
<vectornator:setting key="WDSnapToGrid" value="false"/>
<vectornator:setting key="WDSnapToPoints" value="false"/>
<vectornator:setting key="WDUnits" value="Points"/>
</metadata>
<defs/>
<g id="Untitled" vectornator:layerName="Untitled">
<path d="M0 56.6406C0 60.5794 0.765 64.209 2.295 67.5293C3.82493 70.8496 5.90827 73.5108 8.545 75.5127C11.1817 77.5147 14.1602 78.5157 17.4805 78.5157L24.1211 78.5157C20.6055 75.8464 18.0258 72.583 16.3819 68.7256C14.738 64.8682 13.9486 60.7097 14.0137 56.25C14.1114 51.2696 14.9659 46.9646 16.5772 43.335C18.1885 39.7054 19.8894 36.7839 21.6797 34.5703L15.9668 34.5703C12.972 34.5703 10.2702 35.555 7.8614 37.5244C5.45253 39.4938 3.5401 42.1387 2.1241 45.459C0.708033 48.7794 0 52.5066 0 56.6406ZM19.8731 56.3477C19.7754 61.2305 20.9636 65.6169 23.4375 69.5069C25.9115 73.3968 29.4353 76.4893 34.0088 78.7842C38.5824 81.0791 43.9779 82.2429 50.1954 82.2754L55.7129 82.3242C58.3171 82.3568 60.5632 82.2835 62.4512 82.1045C64.3392 81.9255 65.8366 81.6895 66.9434 81.3965C68.5059 81.0059 69.9219 80.2979 71.1914 79.2725C72.4609 78.2471 73.0957 76.7904 73.0957 74.9024C73.0957 74.1211 73.0143 73.4456 72.8516 72.876C72.6889 72.3063 72.461 71.7936 72.168 71.3379C71.8425 70.7845 71.9238 70.4102 72.4121 70.2149C73.6491 69.7266 74.7233 68.9128 75.6348 67.7734C76.5463 66.6341 77.002 65.267 77.002 63.6719C77.002 61.849 76.53 60.3353 75.586 59.1309C75.1303 58.5124 75.2442 57.9915 75.9278 57.5684C76.8393 57.0475 77.5798 56.2581 78.1495 55.2002C78.7191 54.1423 79.0039 52.9623 79.0039 51.6602C79.0039 50.7487 78.8574 49.8373 78.5645 48.9258C78.2715 48.0143 77.8646 47.3145 77.3438 46.8262C76.7904 46.3379 76.8392 45.8334 77.4903 45.3125C78.1088 44.7591 78.6052 44.0348 78.9795 43.1397C79.3539 42.2445 79.5411 41.2435 79.5411 40.1367C79.5411 38.1836 78.8738 36.5234 77.5391 35.1563C76.2044 33.7891 74.528 33.1055 72.5098 33.1055L58.3985 33.1055C56.5756 33.1055 55.1189 32.6742 54.0284 31.8115C52.9379 30.9489 52.3926 29.7689 52.3926 28.2715C52.3926 26.9368 52.7344 25.3581 53.418 23.5352C54.1016 21.7123 54.8829 19.7754 55.7618 17.7246C56.6407 15.6738 57.4219 13.6393 58.1055 11.6211C58.7891 9.6029 59.1309 7.6986 59.1309 5.9082C59.1309 4.05273 58.6019 2.60417 57.544 1.5625C56.4861 0.520834 55.1596 0 53.5645 0C52.1322 0 51.001 0.455733 50.1709 1.3672C49.3408 2.27867 48.5352 3.4831 47.7539 4.9805C44.7592 10.8073 41.4307 16.1133 37.7686 20.8984C34.1065 25.6836 30.7455 30.0944 27.6856 34.1309C25.114 37.5488 23.1934 40.918 21.9239 44.2383C20.6544 47.5586 19.9708 51.5951 19.8731 56.3477Z" fill="#000000" fill-rule="evenodd" opacity="1" stroke="none"/>
</g>
</svg>
