<?xml version="1.0" encoding="UTF-8" standalone="no"?>
<!-- Created with Inkscape (http://www.inkscape.org/) -->

<svg
   version="1.1"
   id="svg824"
   xml:space="preserve"
   width="74"
   height="20.317221"
   viewBox="0 0 73.999997 20.317221"
   sodipodi:docname="NimIconNumberingNone.svg"
   inkscape:version="1.1.2 (b8e25be8, 2022-02-05)"
   xmlns:inkscape="http://www.inkscape.org/namespaces/inkscape"
   xmlns:sodipodi="http://sodipodi.sourceforge.net/DTD/sodipodi-0.dtd"
   xmlns="http://www.w3.org/2000/svg"
   xmlns:svg="http://www.w3.org/2000/svg"><defs
     id="defs828"><clipPath
       clipPathUnits="userSpaceOnUse"
       id="clipPath840"><path
         d="M 2,1 H 59 V 19 H 2 Z"
         id="path838" /></clipPath><clipPath
       clipPathUnits="userSpaceOnUse"
       id="clipPath844"><path
         d="M 0,0 H 60 V 20 H 0 Z"
         id="path842" /></clipPath></defs><sodipodi:namedview
     id="namedview826"
     pagecolor="#ffffff"
     bordercolor="#666666"
     borderopacity="1.0"
     inkscape:pageshadow="2"
     inkscape:pageopacity="0.0"
     inkscape:pagecheckerboard="0"
     showgrid="false"
     height="26.66667px"
     fit-margin-top="0"
     fit-margin-left="0"
     fit-margin-right="0"
     fit-margin-bottom="0"
     inkscape:zoom="2.833063"
     inkscape:cx="25.41419"
     inkscape:cy="60.182213"
     inkscape:window-width="1614"
     inkscape:window-height="847"
     inkscape:window-x="0"
     inkscape:window-y="44"
     inkscape:window-maximized="0"
     inkscape:current-layer="g830" /><g
     id="g830"
     inkscape:groupmode="layer"
     inkscape:label="345"
     transform="matrix(1.3333333,0,0,-1.3333333,-2.9026123,15.6275)"><g
       id="g832" /><g
       id="g1512"
       transform="matrix(1.5290734,0,0,1.5290734,-16.449456,-8.6673312)"
       style="stroke-width:0.653991"><path
         d="m 13.357471,3.3680794 h 4.663313 c 0.778573,0 1.171912,0.3892854 1.171912,1.1597459 v 4.6876453 c 0,0.7704598 -0.393339,1.1637994 -1.171912,1.1637994 h -4.663313 c -0.77857,0 -1.175966,-0.3892848 -1.175966,-1.1637994 V 4.5278253 c 0,-0.7745157 0.397396,-1.1597459 1.175966,-1.1597459 z m 0.0081,0.5595978 c -0.401451,0 -0.624479,0.2149179 -0.624479,0.6285333 v 4.6308726 c 0,0.4176722 0.223028,0.6285337 0.624479,0.6285337 h 4.643037 c 0.397395,0 0.624479,-0.2108615 0.624479,-0.6285337 V 4.5562105 c 0,-0.4136154 -0.227084,-0.6285333 -0.624479,-0.6285333 z"
         style="fill:#000000;fill-opacity:1;fill-rule:nonzero;stroke:none;stroke-width:0.653989"
         id="path848"
         sodipodi:nodetypes="ssssssssssssssssss" /><path
         d="m 20.660796,3.3680794 h 4.663315 c 0.778569,0 1.171908,0.3892854 1.171908,1.1597459 v 4.6876453 c 0,0.7704598 -0.393339,1.1637994 -1.171908,1.1637994 h -4.663315 c -0.778573,0 -1.175967,-0.3892848 -1.175967,-1.1637994 V 4.5278253 c 0,-0.7745157 0.397394,-1.1597459 1.175967,-1.1597459 z m 0.0081,0.5595978 c -0.401449,0 -0.624479,0.2149179 -0.624479,0.6285333 v 4.6308726 c 0,0.4176722 0.22303,0.6285337 0.624479,0.6285337 h 4.643036 c 0.397398,0 0.624479,-0.2108615 0.624479,-0.6285337 V 4.5562105 c 0,-0.4136154 -0.227081,-0.6285333 -0.624479,-0.6285333 z"
         style="fill:#000000;fill-opacity:1;fill-rule:nonzero;stroke:none;stroke-width:0.653989"
         id="path850"
         sodipodi:nodetypes="ssssssssssssssssss" /><path
         d="m 27.96412,3.3680794 h 4.663314 c 0.778569,0 1.171909,0.3892854 1.171909,1.1597459 v 4.6876453 c 0,0.7704598 -0.39334,1.1637994 -1.171909,1.1637994 H 27.96412 c -0.77857,0 -1.175968,-0.3892848 -1.175968,-1.1637994 V 4.5278253 c 0,-0.7745157 0.397398,-1.1597459 1.175968,-1.1597459 z m 0.0081,0.5595978 c -0.401449,0 -0.624479,0.2149179 -0.624479,0.6285333 v 4.6308726 c 0,0.4176722 0.22303,0.6285337 0.624479,0.6285337 h 4.643041 c 0.397394,0 0.624475,-0.2108615 0.624475,-0.6285337 V 4.5562105 c 0,-0.4136154 -0.227081,-0.6285333 -0.624475,-0.6285333 z"
         style="fill:#000000;fill-opacity:1;fill-rule:nonzero;stroke:none;stroke-width:0.653989"
         id="path852"
         sodipodi:nodetypes="ssssssssssssssssss" /><path
         d="m 35.303445,3.3680794 h 4.663313 c 0.778573,0 1.171912,0.3892854 1.171912,1.1597459 V 9.215471 c 0,0.770459 -0.393339,1.163799 -1.171912,1.163799 h -4.663313 c -0.77857,0 -1.175966,-0.389285 -1.175966,-1.163799 V 4.5278253 c 0,-0.7745157 0.397396,-1.1597459 1.175966,-1.1597459 z m 0.0081,0.5595978 c -0.401451,0 -0.624479,0.2149179 -0.624479,0.6285333 V 9.187083 c 0,0.417672 0.223028,0.628534 0.624479,0.628534 h 4.643037 c 0.397395,0 0.624479,-0.210862 0.624479,-0.628534 V 4.5562105 c 0,-0.4136154 -0.227084,-0.6285333 -0.624479,-0.6285333 z"
         style="fill:#000000;fill-opacity:1;fill-rule:nonzero;stroke:none;stroke-width:0.653989"
         id="path921"
         sodipodi:nodetypes="ssssssssssssssssss" /><path
         d="m 42.642774,3.3680794 h 4.663315 c 0.778569,0 1.171908,0.3892854 1.171908,1.1597459 V 9.215471 c 0,0.770459 -0.393339,1.163799 -1.171908,1.163799 h -4.663315 c -0.778573,0 -1.175967,-0.389285 -1.175967,-1.163799 V 4.5278253 c 0,-0.7745157 0.397394,-1.1597459 1.175967,-1.1597459 z m 0.0081,0.5595978 c -0.401449,0 -0.624479,0.2149179 -0.624479,0.6285333 V 9.187083 c 0,0.417672 0.22303,0.628534 0.624479,0.628534 h 4.643036 c 0.397398,0 0.624479,-0.210862 0.624479,-0.628534 V 4.5562105 c 0,-0.4136154 -0.227081,-0.6285333 -0.624479,-0.6285333 z"
         style="fill:#000000;fill-opacity:1;fill-rule:nonzero;stroke:none;stroke-width:0.653989"
         id="path923"
         sodipodi:nodetypes="ssssssssssssssssss" /></g></g></svg>
