<?xml version="1.0" encoding="UTF-8" standalone="no"?>
<!-- Created with Inkscape (http://www.inkscape.org/) -->

<svg
   version="1.1"
   id="svg1266"
   xml:space="preserve"
   width="32"
   height="40"
   viewBox="0 0 32 40.000001"
   sodipodi:docname="clockForward.svg"
   inkscape:version="1.1.2 (b8e25be8, 2022-02-05)"
   xmlns:inkscape="http://www.inkscape.org/namespaces/inkscape"
   xmlns:sodipodi="http://sodipodi.sourceforge.net/DTD/sodipodi-0.dtd"
   xmlns="http://www.w3.org/2000/svg"
   xmlns:svg="http://www.w3.org/2000/svg"><defs
     id="defs1270" /><sodipodi:namedview
     id="namedview1268"
     pagecolor="#ffffff"
     bordercolor="#666666"
     borderopacity="1.0"
     inkscape:pageshadow="2"
     inkscape:pageopacity="0.0"
     inkscape:pagecheckerboard="0"
     showgrid="false"
     inkscape:zoom="6.7287179"
     inkscape:cx="-7.4308361"
     inkscape:cy="19.02294"
     inkscape:window-width="1466"
     inkscape:window-height="842"
     inkscape:window-x="0"
     inkscape:window-y="44"
     inkscape:window-maximized="0"
     inkscape:current-layer="g1272" /><g
     id="g1272"
     inkscape:groupmode="layer"
     inkscape:label="clockForward"
     transform="matrix(1.3333333,0,0,1.3333333,0,1.0178423e-6)"><g
       id="g1274"
       transform="translate(0,4.7324996)"><path
         d="M 11.777,20.535 C 10.375,20.535 9.055,20.27 7.812,19.734 6.57,19.199 5.477,18.457 4.531,17.508 3.586,16.559 2.844,15.465 2.305,14.227 1.77,12.988 1.5,11.668 1.5,10.27 1.5,8.867 1.77,7.547 2.305,6.309 2.844,5.07 3.586,3.977 4.531,3.027 5.477,2.078 6.57,1.336 7.812,0.801 9.055,0.266 10.375,0 11.777,0 c 1.403,0 2.723,0.266 3.961,0.801 1.239,0.535 2.328,1.273 3.274,2.219 0.945,0.949 1.687,2.039 2.226,3.277 0.539,1.238 0.809,2.558 0.809,3.961 H 20.328 C 20.328,9.074 20.109,7.965 19.668,6.93 19.227,5.898 18.617,4.988 17.836,4.211 17.055,3.43 16.145,2.816 15.109,2.379 14.074,1.938 12.961,1.715 11.777,1.715 10.586,1.715 9.477,1.938 8.441,2.379 7.406,2.816 6.5,3.43 5.715,4.211 4.93,4.988 4.316,5.898 3.875,6.938 3.434,7.973 3.215,9.082 3.215,10.27 c 0,1.183 0.219,2.292 0.66,3.328 0.441,1.039 1.055,1.949 1.84,2.734 0.785,0.785 1.691,1.395 2.726,1.836 1.036,0.441 2.145,0.66 3.336,0.66 1.43,-0.004 2.75,-0.328 3.957,-0.973 1.207,-0.64 2.196,-1.5 2.973,-2.574 0.145,-0.211 0.332,-0.343 0.551,-0.398 0.222,-0.059 0.437,-0.02 0.644,0.113 0.211,0.121 0.336,0.305 0.379,0.547 0.043,0.246 -0.023,0.48 -0.191,0.699 -0.645,0.852 -1.399,1.598 -2.258,2.242 -0.859,0.649 -1.801,1.153 -2.824,1.512 -1.024,0.359 -2.102,0.539 -3.231,0.539 z M 23.281,8.32 c 0.239,0 0.418,0.051 0.543,0.153 0.125,0.097 0.184,0.226 0.176,0.386 -0.008,0.161 -0.078,0.332 -0.211,0.52 l -2.254,3.207 c -0.164,0.226 -0.351,0.344 -0.562,0.344 -0.215,0 -0.403,-0.118 -0.571,-0.344 L 18.152,9.371 C 18.02,9.184 17.953,9.012 17.953,8.855 c 0,-0.156 0.059,-0.285 0.18,-0.382 0.121,-0.102 0.301,-0.153 0.539,-0.153 z"
         style="fill:#000000;fill-opacity:1;fill-rule:nonzero;stroke:none"
         id="path1276" /><path
         d="m 11.379,4.363 c -0.227,0 -0.418,0.078 -0.57,0.235 -0.157,0.156 -0.235,0.343 -0.235,0.562 v 5.629 c 0,0.223 0.082,0.438 0.238,0.649 l 2.489,3.277 c 0.16,0.219 0.351,0.347 0.57,0.387 0.219,0.035 0.43,-0.02 0.641,-0.161 0.187,-0.129 0.285,-0.3 0.3,-0.515 0.016,-0.215 -0.05,-0.426 -0.199,-0.629 l -3.351,-4.52 0.914,2.817 V 5.16 C 12.176,4.941 12.098,4.754 11.945,4.598 11.789,4.441 11.602,4.363 11.379,4.363 Z"
         style="fill:#000000;fill-opacity:1;fill-rule:nonzero;stroke:none"
         id="path1278" /></g></g></svg>
