<?xml version="1.0" encoding="UTF-8" standalone="no"?>
<!-- Created with Inkscape (http://www.inkscape.org/) -->

<svg
   version="1.1"
   id="svg824"
   xml:space="preserve"
   width="74"
   height="24"
   viewBox="0 0 74 24"
   sodipodi:docname="000.svg"
   inkscape:version="1.1.2 (b8e25be8, 2022-02-05)"
   xmlns:inkscape="http://www.inkscape.org/namespaces/inkscape"
   xmlns:sodipodi="http://sodipodi.sourceforge.net/DTD/sodipodi-0.dtd"
   xmlns="http://www.w3.org/2000/svg"
   xmlns:svg="http://www.w3.org/2000/svg"><defs
     id="defs828"><clipPath
       clipPathUnits="userSpaceOnUse"
       id="clipPath840"><path
         d="M 2,1 H 59 V 19 H 2 Z"
         id="path838" /></clipPath><clipPath
       clipPathUnits="userSpaceOnUse"
       id="clipPath844"><path
         d="M 0,0 H 60 V 20 H 0 Z"
         id="path842" /></clipPath></defs><sodipodi:namedview
     id="namedview826"
     pagecolor="#ffffff"
     bordercolor="#666666"
     borderopacity="1.0"
     inkscape:pageshadow="2"
     inkscape:pageopacity="0.0"
     inkscape:pagecheckerboard="0"
     showgrid="false"
     height="26.66667px"
     fit-margin-top="0"
     fit-margin-left="0"
     fit-margin-right="0"
     fit-margin-bottom="0"
     inkscape:zoom="7.6767441"
     inkscape:cx="25.661921"
     inkscape:cy="17.650712"
     inkscape:window-width="1614"
     inkscape:window-height="847"
     inkscape:window-x="0"
     inkscape:window-y="44"
     inkscape:window-maximized="0"
     inkscape:current-layer="g830" /><g
     id="g830"
     inkscape:groupmode="layer"
     inkscape:label="345"
     transform="matrix(1.3333333,0,0,-1.3333333,-2.9026106,25.333333)"><g
       id="g832" /><path
       d="M 5.196044,1 H 17.16828 c 1.99885,0 3.00868,0.999422 3.00868,2.977444 V 16.01215 C 20.17696,17.99017 19.16713,19 17.16828,19 H 5.196044 C 3.197201,19 2.176958,18.00058 2.176958,16.01215 V 3.977444 C 2.176958,1.989011 3.197201,1 5.196044,1 Z m 0.020822,1.436669 c -1.030654,0 -1.603239,0.551764 -1.603239,1.613649 V 15.93927 c 0,1.0723 0.572585,1.61365 1.603239,1.61365 H 17.13705 c 1.02024,0 1.60324,-0.54135 1.60324,-1.61365 V 4.050318 c 0,-1.061885 -0.583,-1.613649 -1.60324,-1.613649 z"
       style="fill:#000000;fill-opacity:1;fill-rule:nonzero;stroke:none"
       id="path848"
       sodipodi:nodetypes="ssssssssssssssssss" /><path
       d="m 23.946049,1 h 11.97224 c 1.99884,0 3.00867,0.999422 3.00867,2.977444 V 16.01215 c 0,1.97802 -1.00983,2.98785 -3.00867,2.98785 h -11.97224 c -1.99885,0 -3.01909,-0.99942 -3.01909,-2.98785 V 3.977444 C 20.926959,1.989011 21.947199,1 23.946049,1 Z m 0.02082,1.436669 c -1.03065,0 -1.60324,0.551764 -1.60324,1.613649 V 15.93927 c 0,1.0723 0.57259,1.61365 1.60324,1.61365 h 11.92018 c 1.02025,0 1.60324,-0.54135 1.60324,-1.61365 V 4.050318 c 0,-1.061885 -0.58299,-1.613649 -1.60324,-1.613649 z"
       style="fill:#000000;fill-opacity:1;fill-rule:nonzero;stroke:none"
       id="path850"
       sodipodi:nodetypes="ssssssssssssssssss" /><path
       d="m 42.696049,1 h 11.97224 c 1.99884,0 3.00867,0.999422 3.00867,2.977444 V 16.01215 c 0,1.97802 -1.00983,2.98785 -3.00867,2.98785 h -11.97224 c -1.99884,0 -3.01909,-0.99942 -3.01909,-2.98785 V 3.977444 C 39.676959,1.989011 40.697209,1 42.696049,1 Z m 0.02082,1.436669 c -1.03065,0 -1.60324,0.551764 -1.60324,1.613649 V 15.93927 c 0,1.0723 0.57259,1.61365 1.60324,1.61365 h 11.92019 c 1.02024,0 1.60323,-0.54135 1.60323,-1.61365 V 4.050318 c 0,-1.061885 -0.58299,-1.613649 -1.60323,-1.613649 z"
       style="fill:#000000;fill-opacity:1;fill-rule:nonzero;stroke:none"
       id="path852"
       sodipodi:nodetypes="ssssssssssssssssss" /></g></svg>
