<?xml version="1.0" encoding="UTF-8" standalone="no"?>
<!-- Created with Inkscape (http://www.inkscape.org/) -->

<svg
   version="1.1"
   id="svg824"
   xml:space="preserve"
   width="74"
   height="24"
   viewBox="0 0 74 24"
   sodipodi:docname="345RtL.svg"
   inkscape:version="1.1.2 (b8e25be8, 2022-02-05)"
   xmlns:inkscape="http://www.inkscape.org/namespaces/inkscape"
   xmlns:sodipodi="http://sodipodi.sourceforge.net/DTD/sodipodi-0.dtd"
   xmlns="http://www.w3.org/2000/svg"
   xmlns:svg="http://www.w3.org/2000/svg"><defs
     id="defs828"><clipPath
       clipPathUnits="userSpaceOnUse"
       id="clipPath840"><path
         d="M 2,1 H 59 V 19 H 2 Z"
         id="path838" /></clipPath><clipPath
       clipPathUnits="userSpaceOnUse"
       id="clipPath844"><path
         d="M 0,0 H 60 V 20 H 0 Z"
         id="path842" /></clipPath></defs><sodipodi:namedview
     id="namedview826"
     pagecolor="#ffffff"
     bordercolor="#666666"
     borderopacity="1.0"
     inkscape:pageshadow="2"
     inkscape:pageopacity="0.0"
     inkscape:pagecheckerboard="0"
     showgrid="false"
     height="26.66667px"
     fit-margin-top="0"
     fit-margin-left="0"
     fit-margin-right="0"
     fit-margin-bottom="0"
     inkscape:zoom="7.6767441"
     inkscape:cx="42.335656"
     inkscape:cy="15.045441"
     inkscape:window-width="1614"
     inkscape:window-height="847"
     inkscape:window-x="0"
     inkscape:window-y="44"
     inkscape:window-maximized="0"
     inkscape:current-layer="g830" /><g
     id="g830"
     inkscape:groupmode="layer"
     inkscape:label="345"
     transform="matrix(1.3333333,0,0,-1.3333333,-2.9026106,25.333333)"><g
       id="g832" /><path
       d="m 42.696043,1 h 11.972236 c 1.99885,0 3.00868,0.999422 3.00868,2.977444 V 16.01215 c 0,1.97802 -1.00983,2.98785 -3.00868,2.98785 H 42.696043 C 40.6972,19 39.676957,18.00058 39.676957,16.01215 V 3.977444 C 39.676957,1.989011 40.6972,1 42.696043,1 Z m 0.02082,1.436669 c -1.030654,0 -1.603239,0.551764 -1.603239,1.613649 V 15.93927 c 0,1.0723 0.572585,1.61365 1.603239,1.61365 h 11.920184 c 1.02024,0 1.60324,-0.54135 1.60324,-1.61365 V 4.050318 c 0,-1.061885 -0.583,-1.613649 -1.60324,-1.613649 0,0 -11.920184,0 -11.920184,0 z m 5.913244,2.92539 c 2.0509,0 3.35223,1.093117 3.35223,2.633892 0,1.145171 -0.8745,2.071719 -2.06131,2.186239 v 0.06246 c 0.9786,0.15616 1.74899,1.06189 1.74899,2.09254 0,1.35338 -1.23887,2.33198 -2.96704,2.33198 -1.561592,0 -2.758815,-0.73915 -2.99826,-1.88432 -0.03123,-0.13534 -0.05205,-0.23945 -0.05205,-0.37479 0,-0.36437 0.260266,-0.60381 0.624638,-0.60381 0.32273,0 0.520532,0.15616 0.614228,0.46848 0.208213,0.75997 0.853677,1.24927 1.790627,1.24927 1.02025,0 1.64488,-0.52053 1.64488,-1.34297 0,-0.84326 -0.70792,-1.4679 -1.6657,-1.4679 h -0.65587 c -0.32273,0 -0.562173,-0.22904 -0.562173,-0.56218 0,-0.312315 0.239443,-0.55176 0.562173,-0.55176 h 0.70793 c 1.13476,0 1.92596,-0.635049 1.92596,-1.551185 0,-0.926548 -0.7912,-1.551186 -1.97802,-1.551186 -1.0827,0 -1.717754,0.541353 -1.946788,1.249277 -0.124928,0.333141 -0.312319,0.468479 -0.624638,0.468479 -0.364373,0 -0.624639,-0.249856 -0.624639,-0.614228 0,-0.135338 0.01041,-0.218623 0.04164,-0.353962 0.301908,-1.124349 1.551185,-1.884326 3.123192,-1.884326 z"
       style="fill:#000000;fill-opacity:1;fill-rule:nonzero;stroke:none"
       id="path848" /><path
       d="m 23.946049,1 h 11.97224 c 1.99884,0 3.00867,0.999422 3.00867,2.977444 V 16.01215 c 0,1.97802 -1.00983,2.98785 -3.00867,2.98785 h -11.97224 c -1.99885,0 -3.01909,-0.99942 -3.01909,-2.98785 V 3.977444 C 20.926959,1.989011 21.947199,1 23.946049,1 Z m 0.02082,1.436669 c -1.03065,0 -1.60324,0.551764 -1.60324,1.613649 V 15.93927 c 0,1.0723 0.57259,1.61365 1.60324,1.61365 h 11.92018 c 1.02025,0 1.60324,-0.54135 1.60324,-1.61365 V 4.050318 c 0,-1.061885 -0.58299,-1.613649 -1.60324,-1.613649 0,0 -11.92018,0 -11.92018,0 z m 7.22498,3.112782 c 0.42684,0 0.6767,0.270676 0.6767,0.749566 v 1.124349 h 0.81203 c 0.35396,0 0.60381,0.239445 0.60381,0.582996 0,0.353962 -0.23944,0.593407 -0.60381,0.593407 h -0.81203 V 13.7218 c 0,0.56218 -0.43725,0.94737 -1.08271,0.94737 -0.62464,0 -1.02024,-0.22903 -1.38462,-0.77038 -0.98901,-1.49914 -2.33198,-3.48757 -3.14401,-4.799311 -0.17698,-0.291498 -0.23944,-0.520532 -0.23944,-0.780798 0,-0.541353 0.36437,-0.895315 0.94736,-0.895315 h 3.57085 V 6.299017 c 0,-0.468479 0.24986,-0.749566 0.65587,-0.749566 z m -0.65587,3.050318 h -3.18565 v 0.062464 c 0.72874,1.249277 2.14459,3.341817 3.12319,4.820127 h 0.06246 c 0,0 0,-4.882591 0,-4.882591 z"
       style="fill:#000000;fill-opacity:1;fill-rule:nonzero;stroke:none"
       id="path850" /><path
       d="m 5.196048,1 h 11.97224 c 1.99884,0 3.00867,0.999422 3.00867,2.977444 V 16.01215 c 0,1.97802 -1.00983,2.98785 -3.00867,2.98785 H 5.196048 c -1.99884,0 -3.01909,-0.99942 -3.01909,-2.98785 V 3.977444 C 2.176958,1.989011 3.197208,1 5.196048,1 Z m 0.02082,1.436669 c -1.03065,0 -1.60324,0.551764 -1.60324,1.613649 V 15.93927 c 0,1.0723 0.57259,1.61365 1.60324,1.61365 h 11.92019 c 1.02024,0 1.60323,-0.54135 1.60323,-1.61365 V 4.050318 c 0,-1.061885 -0.58299,-1.613649 -1.60323,-1.613649 0,0 -11.92019,0 -11.92019,0 z m 5.90283,2.92539 c 1.97803,0 3.321,1.228456 3.321,3.102371 0,1.73858 -1.23887,2.9358 -3.01909,2.9358 -0.80162,0 -1.63447,-0.35396 -1.99884,-0.87449 h -0.07288 l 0.24986,2.81087 h 3.94563 c 0.31232,0 0.54136,0.23945 0.54136,0.56218 0,0.32273 -0.21863,0.56217 -0.54136,0.56217 h -4.09138 c -0.58299,0 -0.96819,-0.33314 -1.00983,-0.85367 l -0.27068,-3.39387 c -0.04164,-0.510123 0.26027,-0.853674 0.75998,-0.853674 0.33314,0 0.53094,0.072874 0.87449,0.343551 0.49971,0.447653 0.90573,0.614223 1.45749,0.614223 1.08271,0 1.81145,-0.749562 1.81145,-1.873911 0,-1.124349 -0.84326,-1.957201 -1.96761,-1.957201 -0.84326,0 -1.572,0.426837 -1.88432,1.113939 -0.15616,0.291498 -0.37479,0.437247 -0.63505,0.437247 -0.36437,0 -0.60382,-0.249855 -0.60382,-0.593407 0,-0.156159 0.03123,-0.291498 0.0937,-0.426836 0.37478,-1.009832 1.49913,-1.655292 3.0399,-1.655292 z"
       style="fill:#000000;fill-opacity:1;fill-rule:nonzero;stroke:none"
       id="path852" /></g></svg>
